<?xml version="1.0" standalone="no"?>
<!DOCTYPE svg PUBLIC "-//W3C//DTD SVG 20010904//EN"
 "http://www.w3.org/TR/2001/REC-SVG-20010904/DTD/svg10.dtd">
<svg version="1.0" xmlns="http://www.w3.org/2000/svg"
 width="700.000000pt" height="700.000000pt" viewBox="0 0 700.000000 700.000000"
 preserveAspectRatio="xMidYMid meet">
<metadata>
Created by potrace 1.11, written by Peter Selinger 2001-2013
</metadata>
<g transform="translate(0.000000,700.000000) scale(0.100000,-0.100000)"
fill="#000000" stroke="none">
<path d="M3329 6996 c-2 -2 -42 -7 -89 -10 -260 -21 -468 -64 -755 -158 -177
-58 -512 -214 -622 -289 -23 -16 -44 -29 -47 -29 -14 0 -212 -142 -316 -225
-196 -159 -400 -364 -530 -535 -19 -25 -37 -47 -40 -50 -15 -13 -124 -178
-188 -282 -80 -132 -182 -339 -235 -473 -31 -80 -107 -303 -107 -316 0 -2
1406 -4 3125 -4 2210 -1 3125 3 3125 10 0 45 -112 344 -191 511 -332 701 -933
1280 -1652 1590 -180 78 -446 163 -607 194 -107 21 -216 39 -275 45 -33 4 -71
9 -85 11 -29 6 -506 15 -511 10z"/>
<path d="M3075 4372 l-60 -3 -144 -332 c-80 -183 -157 -359 -172 -392 -15 -33
-62 -141 -104 -240 -43 -99 -103 -238 -135 -310 -31 -71 -65 -150 -76 -174
-10 -25 -28 -65 -39 -90 l-21 -45 -21 55 c-11 30 -91 225 -177 434 -86 209
-187 452 -223 540 -36 88 -72 176 -80 195 -8 19 -19 44 -24 55 -45 106 -49
145 -23 200 10 22 30 40 58 54 24 11 43 27 43 35 0 14 -84 16 -854 16 -777 0
-854 -1 -851 -16 2 -9 20 -22 42 -29 46 -16 91 -57 117 -107 18 -35 19 -75 19
-970 0 -636 -3 -945 -11 -972 -15 -52 -79 -120 -129 -135 -39 -11 -53 -34 -27
-43 20 -7 796 -3 802 4 9 9 -4 48 -16 48 -19 0 -69 44 -96 84 l-27 41 -1 935
c-1 520 3 950 8 969 14 54 51 104 94 128 l39 22 52 -24 c93 -43 127 -90 236
-327 20 -43 52 -113 72 -155 20 -43 76 -163 124 -268 48 -104 106 -228 127
-275 22 -47 50 -105 61 -130 11 -25 39 -85 62 -135 23 -49 69 -148 102 -220
84 -182 174 -375 221 -475 22 -47 54 -117 72 -156 31 -67 34 -70 65 -68 18 1
36 6 40 11 5 4 38 81 74 170 37 90 85 202 107 250 23 49 54 115 69 148 15 33
44 96 65 140 40 85 83 178 133 285 16 36 51 110 77 165 26 55 58 125 72 155
14 30 46 98 70 150 25 52 57 120 70 150 14 30 52 111 84 179 33 68 59 125 59
126 0 2 27 61 61 132 33 70 68 144 76 163 9 19 18 38 20 42 4 8 -102 14 -182
10z"/>
<path d="M3271 4067 l-151 -305 51 -123 c28 -68 76 -185 106 -259 30 -74 61
-148 68 -165 7 -16 28 -66 45 -110 29 -74 38 -95 76 -183 8 -18 14 -37 14 -42
0 -6 -151 -11 -391 -12 l-390 -3 -35 -63 c-19 -35 -34 -65 -34 -67 0 -2 203
-4 452 -4 354 -1 453 -3 459 -13 16 -26 170 -410 176 -438 8 -44 -4 -79 -40
-111 -17 -16 -35 -29 -39 -29 -3 0 -19 -5 -34 -10 -21 -8 -25 -13 -15 -23 9
-9 207 -11 802 -12 435 0 796 3 802 7 21 13 15 37 -13 48 -35 14 -83 66 -99
105 -8 22 -12 212 -14 693 -3 660 -3 662 17 644 11 -9 61 -56 110 -103 50 -48
111 -106 136 -129 25 -23 124 -117 220 -209 96 -92 189 -181 206 -197 17 -16
109 -103 204 -194 95 -91 194 -185 220 -210 26 -25 122 -117 215 -205 251
-240 264 -252 288 -250 21 2 22 6 20 106 -1 57 -2 523 -3 1035 0 653 3 940 10
960 17 43 57 92 91 109 20 11 29 23 29 40 l0 25 -365 0 c-357 0 -365 0 -365
-20 0 -11 12 -26 28 -34 15 -8 39 -27 54 -43 57 -60 56 -41 56 -758 l0 -660
-95 100 c-188 196 -351 367 -637 669 -26 28 -114 121 -195 206 -82 85 -165
174 -187 196 -21 23 -104 110 -183 193 l-144 151 -97 0 -98 0 0 -1044 c0
-1023 -1 -1044 -20 -1082 -28 -54 -75 -96 -107 -96 -31 0 -99 46 -137 93 -14
19 -119 255 -233 524 -114 270 -213 504 -220 520 -8 17 -93 219 -191 450 -228
543 -265 629 -269 633 -2 2 -71 -133 -154 -301z"/>
<path d="M605 1859 c-12 -18 199 -370 318 -531 166 -224 414 -477 617 -628 18
-14 38 -30 44 -35 15 -14 208 -145 250 -170 387 -227 763 -368 1140 -429 219
-36 188 -32 351 -42 237 -13 462 -4 665 28 36 5 79 12 95 14 17 3 41 7 55 10
14 3 39 8 55 11 88 14 417 111 500 148 17 7 66 28 110 46 77 31 245 115 350
175 88 50 307 201 400 275 352 284 631 622 844 1022 29 54 50 102 46 105 -3 4
-105 7 -226 7 l-220 0 -41 -70 c-136 -229 -323 -452 -563 -670 -64 -58 -326
-255 -340 -255 -2 0 -30 -16 -61 -36 -212 -136 -542 -271 -814 -332 -184 -42
-193 -44 -413 -68 -80 -9 -375 -9 -472 -1 -916 81 -1725 583 -2202 1367 l-40
65 -222 0 c-123 0 -224 -2 -226 -6z"/>
</g>
</svg>
