<?xml version="1.0" standalone="no"?>
<!DOCTYPE svg PUBLIC "-//W3C//DTD SVG 20010904//EN"
 "http://www.w3.org/TR/2001/REC-SVG-20010904/DTD/svg10.dtd">
<svg version="1.0" xmlns="http://www.w3.org/2000/svg"
 width="700.000000pt" height="700.000000pt" viewBox="0 0 700.000000 700.000000"
 preserveAspectRatio="xMidYMid meet">
<metadata>
Created by potrace 1.11, written by Peter Selinger 2001-2013
</metadata>
<g transform="translate(0.000000,700.000000) scale(0.100000,-0.100000)"
fill="#000000" stroke="none">
<path d="M3278 6996 c-1 -2 -41 -6 -88 -10 -47 -4 -96 -8 -110 -10 -14 -2 -47
-7 -73 -11 -27 -4 -56 -8 -65 -10 -10 -1 -37 -6 -62 -9 -25 -3 -60 -10 -77
-15 -18 -5 -33 -8 -33 -6 0 3 -11 0 -26 -5 -14 -6 -38 -12 -55 -15 -169 -30
-491 -146 -724 -261 -220 -108 -323 -170 -510 -305 -605 -438 -1042 -1032
-1279 -1741 -33 -99 -81 -275 -92 -336 -3 -15 -10 -47 -15 -72 -16 -67 -18
-78 -23 -124 -3 -22 -8 -52 -11 -66 -5 -28 -10 -70 -22 -200 -15 -162 -8 -591
12 -711 2 -13 6 -46 9 -74 21 -182 109 -547 165 -680 5 -11 26 -65 46 -120 53
-138 160 -358 239 -489 36 -60 66 -113 66 -117 0 -4 3 -9 8 -11 4 -2 33 -41
64 -88 165 -248 426 -528 683 -734 90 -73 271 -206 279 -206 3 0 32 -18 65
-40 33 -22 63 -40 67 -40 4 0 15 -6 23 -14 26 -23 326 -171 446 -220 136 -55
340 -122 425 -141 8 -1 35 -8 60 -15 53 -14 61 -16 160 -35 97 -18 125 -23
180 -30 25 -3 56 -7 69 -10 135 -26 695 -26 839 -1 19 4 89 14 142 21 19 3 46
7 60 10 14 3 41 8 60 11 134 23 427 109 610 181 129 50 423 193 472 229 18 13
38 24 45 24 7 0 13 5 13 10 0 6 5 10 10 10 26 0 375 254 480 350 115 104 245
237 355 361 46 51 187 237 242 320 105 156 221 366 287 519 16 36 36 83 46
105 54 123 147 418 176 560 16 77 54 301 60 350 4 33 9 76 11 95 8 73 10 519
2 602 -15 164 -34 298 -54 388 -3 14 -8 39 -11 55 -38 213 -152 549 -269 790
-455 942 -1300 1631 -2305 1880 -74 18 -153 36 -175 41 -22 4 -47 9 -55 10 -8
2 -33 6 -55 9 -22 2 -51 7 -65 10 -13 2 -52 7 -86 11 -33 3 -74 8 -90 10 -33
5 -540 14 -546 10z m538 -529 c12 -3 45 -8 75 -12 238 -28 539 -110 773 -210
109 -46 303 -145 348 -176 14 -11 29 -19 32 -19 14 0 219 -143 317 -221 131
-104 362 -335 461 -459 237 -299 407 -615 517 -962 32 -100 66 -224 75 -273 3
-16 10 -55 16 -85 6 -30 12 -66 15 -80 5 -25 10 -71 25 -210 10 -98 9 -443 -1
-545 -42 -407 -166 -806 -358 -1155 -54 -97 -205 -329 -238 -365 -10 -11 -30
-37 -46 -57 -60 -81 -273 -303 -380 -396 -152 -133 -408 -304 -601 -402 -78
-39 -124 -60 -241 -110 -17 -7 -108 -40 -195 -70 -24 -9 -200 -57 -238 -65
-74 -17 -228 -44 -277 -50 -33 -3 -89 -10 -125 -15 -68 -8 -547 -6 -590 3 -14
3 -47 8 -75 12 -27 3 -88 13 -135 21 -47 9 -96 18 -110 21 -46 8 -174 43 -270
74 -345 111 -672 287 -955 514 -95 76 -120 100 -250 230 -109 108 -163 172
-304 351 -97 123 -273 442 -342 618 -51 129 -116 329 -134 406 -16 71 -47 231
-51 264 -3 23 -10 68 -16 101 -13 76 -19 551 -8 630 5 33 11 87 15 120 29 287
162 705 317 994 229 429 494 730 933 1059 23 17 175 112 230 144 345 199 804
345 1180 374 44 4 82 8 84 10 6 6 502 -3 527 -9z"/>
<path d="M1890 4693 c-8 -1 -61 -4 -117 -5 -56 -2 -105 -6 -108 -9 -7 -8 -11
-30 -20 -100 -3 -30 -8 -70 -10 -89 -3 -19 -7 -60 -10 -90 -3 -30 -7 -71 -10
-90 -8 -57 -14 -112 -20 -170 -3 -30 -8 -71 -10 -90 -2 -19 -7 -57 -10 -85 -3
-27 -7 -66 -10 -85 -2 -19 -7 -60 -10 -90 -3 -30 -8 -71 -10 -90 -2 -19 -7
-57 -10 -85 -5 -48 -8 -74 -20 -175 -10 -87 -16 -135 -20 -179 -2 -24 -7 -60
-9 -80 -3 -20 -8 -61 -11 -91 -6 -60 -13 -116 -20 -170 -2 -19 -7 -64 -11
-100 -3 -36 -8 -67 -9 -70 -2 -3 0 -12 4 -19 13 -21 298 -12 311 9 4 7 11 47
15 89 4 42 8 83 10 91 1 8 6 42 9 75 4 33 9 76 11 95 2 19 7 60 10 90 3 30 12
109 20 175 8 66 17 147 20 180 4 33 8 71 10 85 2 14 6 50 10 80 3 30 8 71 10
90 2 19 9 82 15 140 6 58 13 116 15 130 2 14 6 49 9 78 3 28 9 76 12 105 3 28
7 63 9 77 2 14 6 52 10 85 3 33 8 74 10 90 12 102 17 195 9 196 -38 3 -61 4
-74 2z"/>
<path d="M2436 4693 c-1 -1 -46 -3 -99 -4 -108 -2 -126 -10 -121 -56 1 -15 6
-68 9 -118 3 -49 8 -110 10 -135 2 -25 6 -81 10 -125 3 -44 8 -105 10 -135 3
-30 7 -89 10 -130 3 -41 8 -97 10 -125 2 -27 7 -90 10 -140 3 -49 8 -106 10
-125 2 -19 7 -75 10 -125 4 -49 8 -106 10 -125 2 -19 6 -80 10 -135 3 -55 7
-116 10 -135 2 -19 7 -71 10 -115 13 -189 17 -230 25 -238 11 -13 305 -5 318
8 5 5 30 89 191 645 49 168 153 524 231 793 78 268 140 495 138 505 -3 15 -15
17 -118 14 -118 -3 -179 -8 -187 -16 -3 -2 -13 -40 -24 -83 -45 -188 -88 -370
-93 -393 -3 -14 -15 -63 -26 -110 -12 -47 -23 -94 -26 -105 -2 -11 -6 -29 -8
-40 -2 -11 -31 -132 -64 -270 -33 -137 -68 -285 -78 -327 -10 -43 -20 -78 -23
-78 -3 0 -6 24 -7 53 -1 60 -13 381 -19 507 -3 47 -7 146 -10 220 -3 74 -7
185 -10 245 -2 61 -7 173 -10 250 -3 76 -8 141 -9 143 -4 3 -96 8 -100 5z"/>
<path d="M3956 4693 c-1 -1 -39 -3 -84 -4 -45 -1 -89 -7 -98 -13 -9 -7 -46
-117 -89 -266 -41 -140 -106 -365 -145 -500 -39 -135 -73 -252 -75 -260 -2 -8
-11 -40 -20 -70 -9 -30 -25 -84 -35 -120 -10 -36 -61 -213 -114 -394 -60 -207
-92 -334 -87 -339 6 -6 40 -9 78 -8 154 5 211 8 220 14 6 4 32 96 58 204 26
109 50 201 54 205 8 8 281 18 282 10 5 -23 8 -75 13 -222 7 -179 9 -196 19
-206 10 -10 288 -1 306 10 5 4 8 30 6 59 -9 112 -17 214 -20 257 -2 25 -6 81
-10 125 -3 44 -7 103 -10 130 -2 28 -7 86 -10 130 -3 44 -8 98 -10 120 -2 22
-7 85 -10 140 -3 55 -8 116 -10 135 -2 19 -7 71 -10 115 -3 44 -8 103 -10 130
-2 28 -7 86 -10 130 -3 44 -8 103 -10 130 -3 28 -7 79 -9 115 -3 36 -8 101
-11 145 -4 44 -11 84 -16 90 -7 7 -126 15 -133 8z m-91 -674 c6 -114 11 -229
20 -450 l6 -146 -92 -2 c-50 -1 -97 -3 -103 -4 -6 -1 -10 3 -9 9 8 43 18 84
67 289 31 127 60 244 65 260 5 17 15 58 22 93 6 34 13 61 15 59 2 -2 6 -50 9
-108z"/>
<path d="M4847 4690 c-94 -6 -106 -13 -108 -60 0 -14 -2 -38 -4 -55 -8 -62
-14 -112 -20 -170 -4 -33 -8 -69 -10 -81 -2 -11 -6 -52 -10 -90 -4 -38 -8 -80
-11 -93 -2 -14 -6 -54 -9 -90 -4 -36 -8 -73 -10 -81 -2 -8 -7 -44 -11 -80 -7
-76 -8 -81 -24 -220 -6 -58 -13 -118 -15 -135 -3 -16 -7 -57 -10 -90 -3 -33
-8 -73 -10 -90 -2 -16 -9 -73 -15 -125 -6 -52 -13 -111 -15 -130 -2 -19 -7
-62 -11 -95 -4 -33 -8 -71 -9 -85 -2 -14 -6 -54 -10 -90 -3 -36 -8 -70 -10
-76 -9 -29 14 -38 87 -35 40 1 103 4 140 5 45 1 73 7 82 16 9 10 16 53 21 130
3 63 8 138 10 165 5 61 14 184 20 285 3 41 7 100 10 130 2 30 7 96 10 145 3
50 8 117 10 150 2 33 7 103 10 155 6 85 10 134 15 165 2 10 55 -239 64 -300 3
-16 32 -167 66 -335 33 -167 63 -317 65 -332 3 -15 15 -74 26 -130 21 -106 26
-132 33 -170 2 -13 7 -36 11 -52 l8 -28 132 6 c128 6 164 11 166 25 0 3 2 17
4 31 5 32 32 267 40 340 3 30 10 89 15 130 5 41 12 100 15 130 3 30 7 71 10
90 2 19 7 60 10 90 10 90 15 133 20 170 2 19 7 58 10 85 2 28 10 91 16 140 5
50 12 110 15 135 2 25 6 59 8 75 3 17 8 57 11 90 3 33 8 76 11 95 15 112 27
233 28 290 l1 55 -75 -1 c-153 -3 -211 -7 -224 -18 -10 -7 -17 -44 -21 -111
-3 -55 -8 -122 -10 -150 -5 -65 -13 -177 -20 -290 -4 -49 -8 -108 -10 -130 -2
-22 -6 -89 -10 -150 -3 -60 -8 -126 -10 -145 -4 -32 -18 -237 -18 -268 -1 -44
-21 38 -72 293 -78 396 -94 476 -100 503 -3 12 -7 34 -10 50 -50 253 -79 390
-86 404 -10 19 -21 19 -212 8z"/>
</g>
</svg>
