<svg width="16" height="16" viewBox="0 0 16 16" fill="none" xmlns="http://www.w3.org/2000/svg">
<g clip-path="url(#clip0)">
<path d="M12.4168 1.19685H12.3526V0.944882C12.3526 0.423811 11.9288 0 11.4077 0C10.8866 0 10.4628 0.423811 10.4628 0.944882V1.19685H5.53734V0.944882C5.53734 0.423811 5.11353 0 4.59246 0C4.07139 0 3.64758 0.423811 3.64758 0.944882V1.19685H3.58333C1.98307 1.19685 0.681152 2.49877 0.681152 4.09902V13.0981C0.681152 14.6983 1.98307 16.0003 3.58333 16.0003H12.4168C14.0171 16.0003 15.319 14.6983 15.319 13.0981V4.09902C15.3188 2.49877 14.0168 1.19685 12.4168 1.19685ZM10.9668 0.944882C10.9668 0.701732 11.1646 0.503937 11.4077 0.503937C11.6509 0.503937 11.8486 0.701732 11.8486 0.944882V1.95276C11.8486 2.19591 11.6509 2.3937 11.4077 2.3937C11.1646 2.3937 10.9668 2.19591 10.9668 1.95276V0.944882ZM4.15151 0.944882C4.15151 0.701732 4.34931 0.503937 4.59246 0.503937C4.83561 0.503937 5.0334 0.701732 5.0334 0.944882V1.95276C5.0334 2.19591 4.83561 2.3937 4.59246 2.3937C4.34931 2.3937 4.15151 2.19591 4.15151 1.95276V0.944882ZM3.58333 1.70079H3.64758V1.95276C3.64758 2.47383 4.07139 2.89764 4.59246 2.89764C5.11353 2.89764 5.53734 2.47383 5.53734 1.95276V1.70079H10.4628V1.95276C10.4628 2.47383 10.8866 2.89764 11.4077 2.89764C11.9288 2.89764 12.3526 2.47383 12.3526 1.95276V1.70079H12.4168C13.7392 1.70079 14.8151 2.77669 14.8151 4.09902V4.72441H1.18534V4.09902C1.18534 2.77669 2.26099 1.70079 3.58333 1.70079ZM12.4168 15.4961H3.58333C2.26099 15.4961 1.18509 14.4202 1.18509 13.0978V5.22835H14.8148V13.0978C14.8148 14.4202 13.7392 15.4961 12.4168 15.4961ZM13.2705 8.02091C13.4096 8.02091 13.5225 7.90803 13.5225 7.76894C13.5225 7.62986 13.4096 7.51698 13.2705 7.51698H12.3886V6.76107C12.3886 6.62198 12.2757 6.5091 12.1366 6.5091C11.9976 6.5091 11.8847 6.62198 11.8847 6.76107V7.51698H10.289V6.76107C10.289 6.62198 10.1761 6.5091 10.037 6.5091C9.89791 6.5091 9.78503 6.62198 9.78503 6.76107V7.51698H8.18906V6.76107C8.18906 6.62198 8.07618 6.5091 7.93709 6.5091C7.798 6.5091 7.68512 6.62198 7.68512 6.76107V7.51698H6.0894V6.76107C6.0894 6.62198 5.97652 6.5091 5.83744 6.5091C5.69835 6.5091 5.58547 6.62198 5.58547 6.76107V7.51698H3.98975V6.76107C3.98975 6.62198 3.87687 6.5091 3.73778 6.5091C3.5987 6.5091 3.48581 6.62198 3.48581 6.76107V7.51698H2.60392C2.46484 7.51698 2.35196 7.62986 2.35196 7.76894C2.35196 7.90803 2.46484 8.02091 2.60392 8.02091H3.48581V9.95276H2.60392C2.46484 9.95276 2.35196 10.0656 2.35196 10.2047C2.35196 10.3438 2.46484 10.4567 2.60392 10.4567H3.48581V12.3885H2.60392C2.46484 12.3885 2.35196 12.5014 2.35196 12.6405C2.35196 12.7796 2.46484 12.8925 2.60392 12.8925H3.48581V13.6484C3.48581 13.7875 3.5987 13.9003 3.73778 13.9003C3.87687 13.9003 3.98975 13.7875 3.98975 13.6484V12.8925H5.58547V13.6484C5.58547 13.7875 5.69835 13.9003 5.83744 13.9003C5.97652 13.9003 6.0894 13.7875 6.0894 13.6484V12.8925H7.68512V13.6484C7.68512 13.7875 7.798 13.9003 7.93709 13.9003C8.07618 13.9003 8.18906 13.7875 8.18906 13.6484V12.8925H9.78477V13.6484C9.78477 13.7875 9.89766 13.9003 10.0367 13.9003C10.1758 13.9003 10.2887 13.7875 10.2887 13.6484V12.8925H11.8844V13.6484C11.8844 13.7875 11.9973 13.9003 12.1364 13.9003C12.2755 13.9003 12.3884 13.7875 12.3884 13.6484V12.8925H13.2703C13.4093 12.8925 13.5222 12.7796 13.5222 12.6405C13.5222 12.5014 13.4093 12.3885 13.2703 12.3885H12.3884V10.4567H13.2703C13.4093 10.4567 13.5222 10.3438 13.5222 10.2047C13.5222 10.0656 13.4093 9.95276 13.2703 9.95276H12.3884V8.02091H13.2705ZM9.78477 8.02091V9.95276H8.18906V8.02091H9.78477ZM7.68512 8.02091V9.95276H6.0894V8.02091H7.68512ZM3.9895 8.02091H5.58522V9.95276H3.9895V8.02091ZM3.9895 12.3885V10.4567H5.58522V12.3885H3.9895ZM6.0894 12.3885V10.4567H7.68512V12.3885H6.0894ZM8.18906 12.3885V10.4567H9.78477V12.3885H8.18906ZM11.8847 12.3885H10.289V10.4567H11.8847V12.3885ZM11.8847 9.95276H10.289V8.02091H11.8847V9.95276Z" fill="#3C3939"/>
</g>
<defs>
<clipPath id="clip0">
<rect width="16" height="16" fill="white"/>
</clipPath>
</defs>
</svg>
