 <svg width="24" height="24" viewBox="0 0 24 24" fill="none" xmlns="http://www.w3.org/2000/svg">
    <circle cx="12" cy="12" r="12" fill="#3C3939" fill-opacity="0.6"/>
    <path d="M6.75 8.5H7.91667H17.25" stroke="white" stroke-linecap="round" stroke-linejoin="round"/>
    <path d="M9.6665 8.49996V7.33329C9.6665 7.02387 9.78942 6.72713 10.0082 6.50833C10.227 6.28954 10.5238 6.16663 10.8332 6.16663H13.1665C13.4759 6.16663 13.7727 6.28954 13.9915 6.50833C14.2103 6.72713 14.3332 7.02387 14.3332 7.33329V8.49996M16.0832 8.49996V16.6666C16.0832 16.976 15.9603 17.2728 15.7415 17.4916C15.5227 17.7104 15.2259 17.8333 14.9165 17.8333H9.08317C8.77375 17.8333 8.47701 17.7104 8.25821 17.4916C8.03942 17.2728 7.9165 16.976 7.9165 16.6666V8.49996H16.0832Z" stroke="white" stroke-linecap="round" stroke-linejoin="round"/>
</svg>