<svg width="16" height="16" viewBox="0 0 16 16" fill="none" xmlns="http://www.w3.org/2000/svg">
<g clip-path="url(#clip0)">
<path d="M14.4147 1.38098C12.829 -0.351746 10.1435 -0.470961 8.41048 1.11503L0.746927 8.12853L1.38452 8.82521L9.04808 1.81172C9.69937 1.21564 10.5437 0.909029 11.4259 0.947938C13.2509 1.02878 14.6626 2.57114 14.5818 4.39638C14.5427 5.27842 14.1625 6.09246 13.5112 6.68854L4.97674 14.499C4.11236 15.2901 2.76561 15.2304 1.97462 14.366C1.18176 13.4996 1.24113 12.1568 2.10762 11.3639L10.2937 3.87224C10.4798 3.70194 10.7206 3.6142 10.9731 3.62547C11.4945 3.64855 11.8979 4.0892 11.8748 4.61073C11.8636 4.86276 11.755 5.09534 11.5688 5.26564L4.25361 11.9603L4.89121 12.657L12.2064 5.9623C12.5786 5.62168 12.7959 5.15653 12.8182 4.65251C12.8645 3.60973 12.0579 2.72816 11.0149 2.68195C10.5108 2.65966 10.0283 2.83491 9.65612 3.17553L1.47002 10.6672C0.218598 11.8124 0.132594 13.7521 1.27793 15.0036C2.42151 16.2531 4.36688 16.3373 5.61434 15.1957L14.1488 7.38525C15.8774 5.80319 15.9968 3.1097 14.4147 1.38098Z" fill="#4DA9FF"/>
</g>
<defs>
<clipPath id="clip0">
<rect width="16" height="16" fill="white"/>
</clipPath>
</defs>
</svg>