<svg width="237" height="243" viewBox="0 0 237 243" fill="none" xmlns="http://www.w3.org/2000/svg">
<g filter="url(#filter0_d)">
<path d="M74.3216 135.386C73.8361 135.204 73.3506 134.961 72.9258 134.537C72.1976 133.808 71.8335 132.959 71.8335 131.988V100.371C71.8942 99.4002 72.2583 98.5507 72.9258 97.8224C73.3506 97.3977 73.8361 97.1549 74.3216 96.9729V96.184H71.8335H71.6514H63.3983H63.2163H60V96.7908C60.7889 96.9122 61.5171 97.2156 62.0633 97.8224C62.7915 98.5507 63.1556 99.4002 63.1556 100.371V131.988C63.0949 132.959 62.7308 133.808 62.0633 134.537C61.4564 135.144 60.7889 135.447 60 135.568V136.175H63.2163H63.3983H71.5908H71.8335H74.3216V135.386Z" fill="black"/>
<path d="M110.004 96.1812L97.8672 124.035L88.1577 100.429C87.7329 99.2761 87.7936 98.4265 88.3397 97.759C88.8252 97.2128 89.3714 96.9094 89.9782 96.8487V96.2418H74.3216V96.9701C74.807 97.0914 75.2925 97.3342 75.8387 97.6376C76.7489 98.1837 77.5379 99.094 78.1447 100.429L94.7116 136.172L96.0467 136.112C96.0467 136.112 98.4741 130.104 98.5954 129.861L114.313 96.1812H110.004Z" fill="black"/>
<path d="M174.755 96.2418H174.573H166.744H166.623H164.196V96.97C164.742 97.1521 165.167 97.3948 165.591 97.8196C166.259 98.4872 166.623 99.3367 166.623 100.308V122.882L141.317 96.2418C139.861 96.2418 137.858 96.2418 137.858 96.2418V132.167C137.858 133.138 137.494 133.927 136.827 134.594C136.463 134.959 136.038 135.262 135.552 135.383V136.172H137.858H138.041H145.869H146.051H148.478V135.444C147.993 135.262 147.507 135.019 147.083 134.594C146.415 133.927 146.051 133.077 146.051 132.167L145.99 109.532L173.966 136.172H174.876C174.876 136.172 174.694 131.135 174.694 129.74V100.368C174.755 99.3974 175.119 98.5478 175.786 97.8803C176.15 97.5162 176.575 97.2735 177 97.0914V96.2418H174.755Z" fill="black"/>
<path d="M120.017 135.565V136.172H135.734V135.383C135.31 135.262 134.885 135.08 134.46 134.776C133.853 134.412 133.307 133.866 132.822 133.138L117.165 96.1202L111.825 106.861L118.257 122.579H104.482L103.147 125.006H119.167L122.141 132.288C122.505 133.32 122.444 134.109 121.898 134.655C121.352 135.262 120.745 135.565 120.017 135.565Z" fill="black"/>
<path d="M71.0446 91.751H166.077H173.541C166.805 67.7199 144.716 50 118.561 50C92.4056 50 70.3163 67.7199 63.5804 91.751H71.0446Z" fill="#F25C05"/>
<path d="M162.011 140.238C153.394 155.348 137.191 165.543 118.561 165.543C99.9305 165.543 83.7277 155.348 75.1105 140.238H67.1001C76.2635 159.414 95.9253 172.704 118.561 172.704C141.196 172.704 160.858 159.414 170.021 140.238H162.011Z" fill="black"/>
</g>
<defs>
<filter id="filter0_d" x="0" y="0" width="237" height="242.704" filterUnits="userSpaceOnUse" color-interpolation-filters="sRGB">
<feFlood flood-opacity="0" result="BackgroundImageFix"/>
<feColorMatrix in="SourceAlpha" type="matrix" values="0 0 0 0 0 0 0 0 0 0 0 0 0 0 0 0 0 0 127 0"/>
<feOffset dy="10"/>
<feGaussianBlur stdDeviation="30"/>
<feColorMatrix type="matrix" values="0 0 0 0 1 0 0 0 0 1 0 0 0 0 1 0 0 0 0.9 0"/>
<feBlend mode="normal" in2="BackgroundImageFix" result="effect1_dropShadow"/>
<feBlend mode="normal" in="SourceGraphic" in2="effect1_dropShadow" result="shape"/>
</filter>
</defs>
</svg>
