<svg width="123" height="123" viewBox="0 0 123 123" fill="none" xmlns="http://www.w3.org/2000/svg">
<path d="M17.3216 85.3862C16.8361 85.2042 16.3506 84.9615 15.9258 84.5367C15.1976 83.8085 14.8335 82.9589 14.8335 81.9879V50.3712C14.8942 49.4002 15.2583 48.5507 15.9258 47.8224C16.3506 47.3977 16.8361 47.1549 17.3216 46.9729V46.184H14.8335H14.6514H6.39834H6.21628H3V46.7908C3.7889 46.9122 4.51712 47.2156 5.06328 47.8224C5.79149 48.5507 6.1556 49.4002 6.1556 50.3712V81.9879C6.09491 82.9589 5.73081 83.8085 5.06328 84.5367C4.45643 85.1435 3.7889 85.4469 3 85.5683V86.1751H6.21628H6.39834H14.5908H14.8335H17.3216V85.3862Z" fill="black"/>
<path d="M53.0041 46.1812L40.8672 74.0354L31.1577 50.4291C30.7329 49.2761 30.7936 48.4265 31.3397 47.759C31.8252 47.2128 32.3714 46.9094 32.9782 46.8487V46.2418H17.3216V46.9701C17.807 47.0914 18.2925 47.3342 18.8387 47.6376C19.7489 48.1837 20.5379 49.094 21.1447 50.4291L37.7116 86.1723L39.0467 86.1117C39.0467 86.1117 41.4741 80.1039 41.5954 79.8611L57.3127 46.1812H53.0041V46.1812Z" fill="black"/>
<path d="M117.755 46.2418H117.573H109.744H109.623H107.196V46.97C107.742 47.1521 108.167 47.3948 108.591 47.8196C109.259 48.4872 109.623 49.3367 109.623 50.3077V72.8824L84.3175 46.2418C82.861 46.2418 80.8584 46.2418 80.8584 46.2418V82.1671C80.8584 83.1381 80.4943 83.927 79.8268 84.5945C79.4627 84.9586 79.0379 85.262 78.5524 85.3834V86.1723H80.8584H81.0405H88.8688H89.0509H91.4783V85.4441C90.9928 85.262 90.5073 85.0193 90.0825 84.5945C89.415 83.927 89.0509 83.0774 89.0509 82.1671L88.9902 59.5317L116.966 86.1723H117.876C117.876 86.1723 117.694 81.1355 117.694 79.7397V50.3684C117.755 49.3974 118.119 48.5478 118.786 47.8803C119.15 47.5162 119.575 47.2735 120 47.0914V46.2418H117.755Z" fill="black"/>
<path d="M63.0171 85.5652V86.1721H78.7344V85.3832C78.3096 85.2618 77.8848 85.0798 77.46 84.7763C76.8531 84.4122 76.307 83.8661 75.8215 83.1379L60.1649 46.1202L54.8246 56.8614L61.2572 72.5787H47.4818L46.1467 75.0061H62.1675L65.141 82.2883C65.5051 83.3199 65.4444 84.1088 64.8983 84.655C64.3521 85.2618 63.7453 85.5652 63.0171 85.5652Z" fill="black"/>
<path d="M14.4642 41.7511H109.496H116.961C110.225 17.7199 88.1354 0 61.9803 0C35.8252 0 13.736 17.7199 7 41.7511H14.4642Z" fill="#F25C05"/>
<path d="M105.431 90.2379C96.8133 105.348 80.6105 115.543 61.9803 115.543C43.3501 115.543 27.1473 105.348 18.5301 90.2379H10.5197C19.6831 109.414 39.3449 122.704 61.9803 122.704C84.6157 122.704 104.277 109.414 113.441 90.2379H105.431Z" fill="black"/>
</svg>
