<svg width="229" height="229" viewBox="0 0 229 229" fill="none" xmlns="http://www.w3.org/2000/svg">
<path d="M104.577 102.592L90.5313 134.805L79.3866 107.477C78.9286 106.18 79.005 105.111 79.6156 104.424C80.15 103.813 80.837 103.432 81.524 103.355V102.668L63.3566 102.592H60.456H60.227H50.7617H50.5326H46.8687V103.279C47.7847 103.355 48.6243 103.737 49.235 104.424C50.0747 105.264 50.4563 106.18 50.5326 107.325V143.888C50.4563 145.033 50.0747 146.026 49.235 146.789C48.548 147.476 47.7847 147.858 46.8687 147.934V148.621H50.5326H50.7617H60.227H60.456H63.3566V147.705C62.746 147.476 62.2116 147.171 61.7536 146.713C60.914 145.873 60.5323 144.957 60.456 143.812V107.248C60.5323 106.103 60.914 105.111 61.7536 104.348C62.2116 103.89 63.3566 103.355 63.3566 103.355C63.891 103.508 64.5016 103.737 65.1123 104.119C66.181 104.729 67.097 105.798 67.784 107.325L86.9436 148.621L88.4703 148.545C88.4703 148.545 91.2946 141.598 91.371 141.293L109.538 102.363H104.577V102.592Z" fill="black"/>
<path d="M179.46 102.668H179.231H170.223H170.071H167.246V103.508C167.857 103.661 168.391 103.966 168.849 104.5C169.613 105.264 169.994 106.256 170.071 107.401V133.507L140.835 102.668C139.156 102.668 136.866 102.668 136.866 102.668V144.27C136.866 145.339 136.484 146.331 135.644 147.094C135.186 147.552 134.194 148.01 134.194 148.01C133.736 147.858 133.202 147.629 132.744 147.323C132.057 146.865 131.446 146.255 130.835 145.491L112.744 102.745L106.561 115.111L114.042 133.278H98.1647L96.638 136.026H115.187L118.622 144.423C119.004 145.568 118.927 146.56 118.317 147.171C117.706 147.858 116.943 148.239 116.103 148.239V148.926H134.27H136.866H146.102H146.331H149.079V148.087C148.468 147.934 147.934 147.552 147.476 147.094C146.713 146.331 146.255 145.339 146.255 144.27L146.178 118.164L178.544 148.926H179.612C179.612 148.926 179.383 143.125 179.383 141.446V107.477C179.46 106.332 179.841 105.34 180.605 104.577C180.986 104.195 181.521 103.89 181.979 103.661V102.745H179.46V102.668Z" fill="black"/>
<path d="M164.727 153.583C154.804 171.063 136.026 182.895 114.5 182.895C92.974 182.895 74.2723 170.987 64.2727 153.583H54.96C65.5703 175.796 88.3177 191.139 114.5 191.139C140.682 191.139 163.353 175.796 174.04 153.583H164.727Z" fill="black"/>
<path d="M143.812 50.9907L136.179 75.341C136.026 75.7227 135.721 76.028 135.263 76.028H130.53C129.919 76.028 129.461 75.4937 129.538 74.883L135.721 42.2887C135.797 41.7543 135.492 41.2963 135.034 41.1437C132.362 40.3803 124.347 38.0903 114.424 38.0903C104.5 38.0903 95.3403 40.2277 92.287 40.9147C91.7527 41.0673 91.371 41.6017 91.5237 42.136L99.386 74.8067C99.5387 75.4173 99.0807 76.028 98.47 76.028H93.8137C93.3557 76.028 92.974 75.7227 92.8976 75.341L85.188 50.7617C85.0353 50.151 84.3483 49.8457 83.7376 50.151C68.1656 58.3187 56.2576 72.4403 51.067 89.539C50.838 90.1497 51.3723 90.8367 52.0593 90.8367H59.311H169.155H176.406C177.093 90.8367 177.551 90.226 177.399 89.539C172.284 72.593 160.605 58.5477 145.262 50.38C144.652 50.0747 143.965 50.38 143.812 50.9907Z" fill="#F25C05"/>
<path d="M135.95 41.3727C136.026 41.449 136.026 41.449 135.95 41.3727V41.3727Z" fill="#F25C05"/>
<path d="M181.673 95.7983H47.3267C47.0977 95.7983 46.8687 95.5693 46.8687 95.3403V89.6916C46.8687 89.4626 47.0977 89.2336 47.3267 89.2336H181.673C181.902 89.2336 182.131 89.4626 182.131 89.6916V95.3403C182.131 95.6456 181.902 95.7983 181.673 95.7983Z" fill="#F25C05"/>
</svg>
