<svg width="117" height="123" viewBox="0 0 117 123" fill="none" xmlns="http://www.w3.org/2000/svg">
<path d="M14.3216 85.3859C13.8361 85.2038 13.3506 84.9611 12.9258 84.5363C12.1976 83.8081 11.8335 82.9585 11.8335 81.9875V50.3708C11.8942 49.3999 12.2583 48.5503 12.9258 47.8221C13.3506 47.3973 13.8361 47.1545 14.3216 46.9725V46.1836H11.8335H11.6514H3.39834H3.21628H0V46.7904C0.7889 46.9118 1.51712 47.2152 2.06328 47.8221C2.79149 48.5503 3.1556 49.3999 3.1556 50.3708V81.9875C3.09491 82.9585 2.73081 83.8081 2.06328 84.5363C1.45643 85.1431 0.7889 85.4466 0 85.5679V86.1748H3.21628H3.39834H11.5908H11.8335H14.3216V85.3859Z" fill="black"/>
<path d="M50.0041 46.1812L37.8672 74.0354L28.1576 50.4291C27.7328 49.2761 27.7935 48.4265 28.3397 47.759C28.8252 47.2128 29.3713 46.9094 29.9782 46.8487V46.2418H14.3215V46.9701C14.807 47.0914 15.2925 47.3342 15.8386 47.6376C16.7489 48.1837 17.5378 49.094 18.1447 50.4291L34.7116 86.1723L36.0466 86.1117C36.0466 86.1117 38.474 80.1039 38.5954 79.8611L54.3127 46.1812H50.0041V46.1812Z" fill="black"/>
<path d="M114.755 46.2417H114.573H106.744H106.623H104.196V46.9699C104.742 47.152 105.167 47.3947 105.591 47.8195C106.259 48.487 106.623 49.3366 106.623 50.3076V72.8822L81.3175 46.2417C79.8611 46.2417 77.8585 46.2417 77.8585 46.2417V82.167C77.8585 83.1379 77.4944 83.9268 76.8269 84.5944C76.4628 84.9585 76.038 85.2619 75.5525 85.3833V86.1722H77.8585H78.0406H85.8689H86.0509H88.4783V85.444C87.9928 85.2619 87.5074 85.0192 87.0826 84.5944C86.415 83.9268 86.0509 83.0772 86.0509 82.167L85.9902 59.5316L113.966 86.1722H114.876C114.876 86.1722 114.694 81.1353 114.694 79.7396V50.3683C114.755 49.3973 115.119 48.5477 115.786 47.8802C116.15 47.5161 116.575 47.2733 117 47.0913V46.2417H114.755Z" fill="black"/>
<path d="M60.0171 85.5651V86.172H75.7344V85.3831C75.3096 85.2617 74.8848 85.0796 74.46 84.7762C73.8531 84.4121 73.307 83.866 72.8215 83.1377L57.1649 46.1201L51.8246 56.8613L58.2572 72.5786H44.4818L43.1467 75.006H59.1675L62.141 82.2881C62.5051 83.3198 62.4444 84.1087 61.8983 84.6549C61.3521 85.2617 60.7453 85.5651 60.0171 85.5651Z" fill="black"/>
<path d="M11.0445 41.7511H106.077H113.541C106.805 17.7199 84.7157 0 58.5606 0C32.4055 0 10.3163 17.7199 3.58032 41.7511H11.0445Z" fill="#F25C05"/>
<path d="M102.011 90.2378C93.3936 105.348 77.1908 115.543 58.5607 115.543C39.9305 115.543 23.7277 105.348 15.1105 90.2378H7.1001C16.2635 109.414 35.9253 122.704 58.5607 122.704C81.196 122.704 100.858 109.414 110.021 90.2378H102.011Z" fill="black"/>
</svg>
