<svg width="54" height="54" viewBox="0 0 54 54" fill="none" xmlns="http://www.w3.org/2000/svg">
<path fill-rule="evenodd" clip-rule="evenodd" d="M50 27C50 39.7025 39.7025 50 27 50C14.2975 50 4 39.7025 4 27C4 14.2975 14.2975 4 27 4C39.7025 4 50 14.2975 50 27ZM54 27C54 41.9117 41.9117 54 27 54C12.0883 54 0 41.9117 0 27C0 12.0883 12.0883 0 27 0C41.9117 0 54 12.0883 54 27ZM13.5547 32.7266L15.2246 18.0195C15.2246 17.8698 15.14 17.7917 14.9707 17.7852L13.0176 17.8535C12.8743 17.8665 12.7897 17.9414 12.7637 18.0781L11.0742 32.8535C11.0742 32.9772 11.1458 33.0391 11.2891 33.0391L13.3008 32.9707C13.4505 32.9642 13.5352 32.8828 13.5547 32.7266ZM17.0801 18.0879L18.2129 32.7949C18.2259 32.9512 18.2975 33.0326 18.4277 33.0391L20.5859 32.9609C20.6966 32.9609 20.7747 32.8828 20.8203 32.7266L25.1074 17.9609C25.1074 17.8372 25.0358 17.7754 24.8926 17.7754L22.8711 17.8535C22.793 17.86 22.7376 17.8796 22.7051 17.9121C22.679 17.9447 22.6562 18.0033 22.6367 18.0879L20.0488 28.9863L19.5898 17.9707C19.5898 17.847 19.5182 17.7852 19.375 17.7852L17.3438 17.8535C17.168 17.86 17.0801 17.9382 17.0801 18.0879ZM32.7637 32.7168L31.6211 18.0098C31.6081 17.86 31.5332 17.7819 31.3965 17.7754L29.248 17.8535C29.1178 17.86 29.0299 17.9349 28.9844 18.0781L24.6973 32.8535C24.6973 32.9772 24.7624 33.0391 24.8926 33.0391L26.9141 32.9707C26.9987 32.9642 27.0573 32.9447 27.0898 32.9121C27.1224 32.8796 27.1484 32.8177 27.168 32.7266L27.9004 29.7188L30.1172 29.6309L30.2637 32.8535C30.2637 32.9772 30.332 33.0391 30.4688 33.0391L32.5098 32.9609C32.679 32.9479 32.7637 32.8665 32.7637 32.7168ZM28.4082 27.6387L29.7754 22.0332L30.0293 27.5801L28.4082 27.6387ZM42.5391 32.6875L44.2188 17.9805C44.2188 17.8242 44.1309 17.7461 43.9551 17.7461L42.0117 17.8535C41.8424 17.86 41.7546 17.9349 41.748 18.0781L41.0645 27.834L39.082 17.9805C39.0625 17.8958 39.0365 17.8372 39.0039 17.8047C38.9779 17.7656 38.9193 17.7461 38.8281 17.7461L36.8457 17.8535C36.7025 17.8665 36.6178 17.9414 36.5918 18.0781L34.9023 32.8535C34.9023 32.9772 34.974 33.0391 35.1172 33.0391L37.1289 32.9707C37.2917 32.9642 37.3763 32.8828 37.3828 32.7266L38.1055 22.4238L40.1562 32.8535C40.1758 32.9772 40.2409 33.0391 40.3516 33.0391L42.2852 32.9316C42.4284 32.9186 42.513 32.8372 42.5391 32.6875Z" fill="#4D2077"/>
</svg>
